<svg width="20" height="15" viewBox="0 0 20 15" fill="none" xmlns="http://www.w3.org/2000/svg">
<path d="M16.9419 1.25103C15.6303 0.658923 14.2427 0.238206 12.8158 0C12.6381 0.310025 12.4304 0.72701 12.2872 1.05874C10.7488 0.835553 9.22451 0.835553 7.71435 1.05874C7.57123 0.727085 7.35888 0.310025 7.17951 0C5.75122 0.238316 4.36245 0.660105 3.05021 1.25412C0.438962 5.06133 -0.268929 8.77387 0.0849775 12.4339C1.81693 13.6817 3.49537 14.4398 5.14552 14.9359C5.55563 14.3917 5.91815 13.8156 6.22935 13.2136C5.63687 12.9959 5.0657 12.7277 4.52263 12.4122C4.66555 12.31 4.80509 12.2034 4.94107 12.0928C8.23185 13.5779 11.8075 13.5779 15.059 12.0928C15.1956 12.2027 15.3351 12.3092 15.4774 12.4122C14.9335 12.7286 14.3612 12.9973 13.7676 13.2151C14.0805 13.8197 14.4424 14.3963 14.8514 14.9374C16.5031 14.4414 18.1831 13.6833 19.9151 12.4339C20.3304 8.19105 19.2057 4.51251 16.9419 1.25095V1.25103ZM6.67771 10.183C5.68982 10.183 4.87966 9.29321 4.87966 8.20967C4.87966 7.12613 5.67255 6.2348 6.67771 6.2348C7.68294 6.2348 8.49302 7.12455 8.47576 8.20967C8.47732 9.29321 7.68294 10.183 6.67771 10.183ZM13.3223 10.183C12.3344 10.183 11.5244 9.29321 11.5244 8.20967C11.5244 7.12613 12.3172 6.2348 13.3223 6.2348C14.3276 6.2348 15.1376 7.12455 15.1204 8.20967C15.1204 9.29321 14.3276 10.183 13.3223 10.183Z" fill="#5865F2"/>
</svg>
